<svg width="49" height="40" viewBox="0 0 49 40" fill="none" xmlns="http://www.w3.org/2000/svg">
<g filter="url(#filter0_d_271_50)">
<path d="M29.2813 39.3437C28.0729 39.3437 26.8542 39.3229 25.625 39.2812C24.3958 39.2604 23.1875 39.2187 22 39.1562C20.8333 39.0937 19.6979 39.0208 18.5938 38.9375C17.5104 38.8333 16.5104 38.7188 15.5937 38.5938L18.625 8.1875C17.3958 8.54167 16.2396 8.96875 15.1562 9.46875C14.0729 9.94792 13.1146 10.4583 12.2812 11C13.0104 11.4375 13.5729 12.0313 13.9687 12.7813C14.3854 13.5313 14.5937 14.2813 14.5937 15.0313C14.5937 15.6979 14.4583 16.3333 14.1875 16.9375C13.9167 17.5417 13.5521 18.0729 13.0937 18.5313C12.6354 18.9896 12.0937 19.3542 11.4687 19.625C10.8646 19.875 10.2292 20 9.5625 20C8.79167 20 8.10417 19.8438 7.5 19.5312C6.89583 19.2188 6.375 18.8021 5.9375 18.2813C5.52083 17.7396 5.19792 17.1354 4.96875 16.4687C4.76042 15.8021 4.65625 15.1042 4.65625 14.375C4.65625 12.9167 5.04167 11.5521 5.8125 10.2813C6.60417 9.01042 7.66667 7.86458 9 6.84375C10.3333 5.80208 11.8854 4.88542 13.6562 4.09375C15.4479 3.28125 17.3333 2.60417 19.3125 2.0625C21.3125 1.5 23.3542 1.08333 25.4375 0.812502C27.5417 0.520835 29.5833 0.375001 31.5625 0.375001C33.8125 0.375001 35.7812 0.625001 37.4688 1.125C39.1562 1.625 40.6042 2.30208 41.8125 3.15625C43.0417 3.98958 44.0521 4.95833 44.8437 6.0625C45.6562 7.16667 46.2917 8.32292 46.75 9.53125C47.2292 10.7188 47.5625 11.9167 47.75 13.125C47.9375 14.3333 48.0313 15.4583 48.0313 16.5C48.0313 17.9375 47.9271 19.5104 47.7187 21.2187C47.5312 22.9062 47.1771 24.5938 46.6562 26.2813C46.1354 27.9688 45.4271 29.6042 44.5312 31.1875C43.6562 32.75 42.5208 34.1354 41.125 35.3438C39.7292 36.5521 38.0625 37.5208 36.125 38.25C34.1875 38.9792 31.9062 39.3437 29.2813 39.3437ZM37.125 16.0313C37.125 14.6354 36.9167 13.3958 36.5 12.3125C36.0833 11.2083 35.5104 10.2813 34.7812 9.53125C34.0521 8.78125 33.1875 8.20833 32.1875 7.8125C31.2083 7.41667 30.1354 7.21875 28.9687 7.21875L26.375 31.5938C26.875 31.7604 27.375 31.875 27.875 31.9375C28.375 32 28.8854 32.0312 29.4063 32.0312C30.4896 32.0312 31.4271 31.7292 32.2187 31.125C33.0312 30.5208 33.7187 29.7396 34.2812 28.7813C34.8437 27.8229 35.3125 26.75 35.6875 25.5625C36.0625 24.3542 36.3542 23.1667 36.5625 22C36.7708 20.8125 36.9167 19.6979 37 18.6563C37.0833 17.5938 37.125 16.7188 37.125 16.0313Z" fill="#115173"/>
</g>
<defs>
<filter id="filter0_d_271_50" x="0.65625" y="0.375" width="47.375" height="38.9688" filterUnits="userSpaceOnUse" color-interpolation-filters="sRGB">
<feFlood flood-opacity="0" result="BackgroundImageFix"/>
<feColorMatrix in="SourceAlpha" type="matrix" values="0 0 0 0 0 0 0 0 0 0 0 0 0 0 0 0 0 0 127 0" result="hardAlpha"/>
<feOffset dx="-4"/>
<feComposite in2="hardAlpha" operator="out"/>
<feColorMatrix type="matrix" values="0 0 0 0 1 0 0 0 0 0.843137 0 0 0 0 0 0 0 0 1 0"/>
<feBlend mode="normal" in2="BackgroundImageFix" result="effect1_dropShadow_271_50"/>
<feBlend mode="normal" in="SourceGraphic" in2="effect1_dropShadow_271_50" result="shape"/>
</filter>
</defs>
</svg>
