<?xml version="1.0" standalone="no"?>
<!DOCTYPE svg PUBLIC "-//W3C//DTD SVG 20010904//EN"
 "http://www.w3.org/TR/2001/REC-SVG-20010904/DTD/svg10.dtd">
<svg version="1.0" xmlns="http://www.w3.org/2000/svg"
 width="2560.000000pt" height="2560.000000pt" viewBox="0 0 2560.000000 2560.000000"
 preserveAspectRatio="xMidYMid meet">

<g transform="translate(0.000000,2560.000000) scale(0.100000,-0.100000)"
fill="#000000" stroke="none">
<path d="M5678 12817 c-2 -4396 -2 -8000 0 -8008 1 -8 17 -19 35 -25 54 -18
1670 -1037 1675 -1057 4 -17 121 -18 3416 -14 3482 4 3482 4 3941 42 1773 149
3331 750 4610 1779 394 317 841 770 1146 1161 797 1022 1321 2238 1528 3543
87 547 115 910 115 1497 0 408 -8 599 -40 940 -143 1515 -652 2876 -1498 4009
-204 272 -362 454 -635 729 -576 584 -1241 1058 -2011 1434 -139 68 -195 102
-270 163 -344 279 -782 566 -1210 795 -950 507 -2056 831 -3245 950 -510 51
-293 48 -4052 52 l-3503 4 -2 -7994z m6962 7653 c1234 -57 2344 -317 3347
-784 186 -87 579 -294 571 -301 -2 -2 -58 12 -125 30 -422 116 -1017 221
-1528 270 -519 51 -349 48 -3940 54 l-3360 6 -582 365 c-320 201 -582 367
-583 370 0 10 5973 0 6200 -10z m-5935 -519 l680 -427 0 -7205 0 -7204 -687
-3 -688 -2 0 7635 c0 4199 3 7635 8 7634 4 0 313 -193 687 -428z m7870 -564
c674 -57 1074 -119 1631 -252 402 -96 989 -295 1328 -449 96 -44 207 -138 466
-396 346 -345 607 -664 885 -1085 151 -228 272 -440 419 -735 449 -899 694
-1829 788 -2985 18 -217 18 -1123 0 -1340 -77 -956 -253 -1710 -592 -2535 -83
-203 -320 -670 -446 -880 -314 -525 -635 -940 -1044 -1351 -285 -286 -504
-476 -800 -696 -1116 -828 -2422 -1329 -3907 -1498 -493 -56 -494 -56 -2053
-65 -800 -4 -1922 -8 -2492 -9 l-1038 -1 0 7150 0 7151 3328 -4 c3020 -3 3345
-5 3527 -20z m4199 -1394 c857 -591 1562 -1367 2071 -2278 548 -982 851 -2028
952 -3281 22 -274 25 -1071 5 -1319 -48 -597 -111 -1001 -232 -1485 -276
-1106 -782 -2094 -1513 -2960 -213 -252 -610 -639 -882 -860 -867 -704 -1885
-1209 -3001 -1489 -415 -104 -863 -181 -1304 -225 -514 -52 -355 -49 -3872
-53 l-3278 -4 0 375 0 375 2483 4 c2614 4 2507 2 2967 47 1818 176 3416 840
4700 1954 151 130 548 528 683 683 552 635 1001 1378 1322 2188 260 657 436
1392 514 2150 40 385 46 512 45 1010 0 510 -9 685 -54 1090 -157 1394 -633
2664 -1400 3730 -100 141 -255 340 -304 393 -16 17 -26 32 -22 32 5 0 58 -35
120 -77z m-11384 -13539 l0 -336 -22 14 c-13 8 -248 156 -523 328 -275 172
-504 316 -509 321 -6 5 215 9 522 9 l532 0 0 -336z"/>
<path d="M10280 12836 l0 -3946 855 0 855 0 0 -534 0 -533 31 -7 c49 -10 1376
-7 1656 4 279 10 407 21 623 51 761 106 1407 375 1930 804 124 102 355 335
451 455 449 559 688 1200 781 2090 17 167 17 870 0 1040 -65 631 -189 1092
-415 1541 -216 430 -498 777 -878 1083 -313 252 -718 465 -1139 599 l-115 37
-100 108 c-558 599 -1309 966 -2247 1097 -314 44 -400 47 -1360 52 l-928 5 0
-3946z m1835 3604 c766 -49 1384 -233 1903 -567 98 -63 263 -185 283 -209 13
-16 10 -17 -38 -10 -294 39 -299 39 -1295 43 l-978 4 0 -3239 0 -3239 -167 -6
c-91 -4 -402 -7 -690 -7 l-523 0 0 3620 0 3620 673 0 c369 0 744 -5 832 -10z
m1861 -1084 c238 -23 446 -55 644 -100 123 -28 116 -22 245 -216 186 -279 313
-557 410 -896 117 -407 169 -816 168 -1339 0 -309 -9 -462 -44 -719 -135 -996
-569 -1745 -1304 -2248 -443 -303 -984 -498 -1608 -578 -87 -11 -160 -20 -162
-20 -3 0 -5 1382 -5 3071 l0 3071 748 -5 c567 -4 786 -9 908 -21z m1390 -356
c140 -66 265 -137 404 -231 661 -446 1087 -1095 1274 -1939 71 -325 97 -565
103 -981 6 -356 -3 -554 -37 -809 -107 -807 -398 -1441 -885 -1925 -533 -530
-1234 -840 -2125 -939 -250 -28 -502 -36 -1142 -36 l-638 0 0 385 0 384 33 5
c17 3 93 12 167 21 642 78 1247 290 1710 598 1079 719 1594 1887 1539 3495
-14 422 -58 744 -149 1097 -72 278 -163 521 -291 773 -43 83 -76 152 -73 152
3 0 52 -22 110 -50z"/>
</g>
</svg>
